# xmcd
#
# Track frame offsets: 
#        150
#        10758
#        26487
#        38284
#        50881
#        58815
#        72234
#        87147
#        103508
#        114506
#        122518
#        131191
#        142322
#        153589
#        166392
#        184101
#        193911
#        205585
#        218463
#
# Disc length: 3089 seconds
#
# Revision: 0
# Processed by: cddbd v1.5.2PL0 Copyright (c) Steve Scherf et al.
# Submitted via: ExactAudioCopy v0.99pb5
#
DISCID=0d0c0f13
DTITLE=Казачьи Песни - Походные
DYEAR=2000
DGENRE=Folklore
TTITLE0=Вдоль по речке, вдоль да по Казанке
TTITLE1=Засвистали, казаченьки
TTITLE2=песня про казака Голоту
TTITLE3=Горлица та казачок с перебором
TTITLE4=Пыль клубится по дорожке
TTITLE5=Что мне тучи грозовые...
TTITLE6=Полюшко-поле
TTITLE7=От Волги до Дона
TTITLE8=Донской казачок
TTITLE9=Казаки готовы к бою...
TTITLE10=Ой, заскучал один козак по дому...
TTITLE11=Как за Доном, за рекою...
TTITLE12=Оседлаю коня
TTITLE13=Дым по степи...
TTITLE14=Славное море...
TTITLE15=Скачет, скачет казаченок
TTITLE16=Эх вы, Сальцы удалые
TTITLE17=Казачья коноармейская
TTITLE18=Казачья песня о Сталине
EXTD=
EXTT0=
EXTT1=
EXTT2=
EXTT3=
EXTT4=
EXTT5=
EXTT6=
EXTT7=
EXTT8=
EXTT9=
EXTT10=
EXTT11=
EXTT12=
EXTT13=
EXTT14=
EXTT15=
EXTT16=
EXTT17=
EXTT18=
PLAYORDER=
